<svg width="420" height="420" viewBox="0 0 420 420" fill="none" xmlns="http://www.w3.org/2000/svg">
  <circle cx="210" cy="210" r="202" fill="#082219"/>
  <circle cx="210" cy="210" r="194" fill="#0A2A20"/>
  <circle cx="210" cy="210" r="184" stroke="#1B4A38" stroke-width="1.4"/>
  <circle cx="210" cy="210" r="154" stroke="#397057" stroke-width="1.3" opacity=".72"/>
  <circle cx="210" cy="210" r="128" stroke="#214B3A" stroke-width="1"/>
  <circle cx="210" cy="210" r="98" fill="#0F3327"/>
  <path d="M210 92L230 168L304 116L252 190L328 210L252 230L304 304L230 252L210 328L190 252L116 304L168 230L92 210L168 190L116 116L190 168L210 92Z" fill="#B7E3C9" fill-opacity=".050"/>
  <path d="M210 124L223 174L272 140L238 189L288 210L238 231L272 280L223 246L210 296L197 246L148 280L182 231L132 210L182 189L148 140L197 174L210 124Z" fill="#B7E3C9" fill-opacity=".075"/>
  <circle cx="210" cy="210" r="74" stroke="#1F4B3A" stroke-width="1"/>
  <circle cx="210" cy="210" r="44" fill="#F6F7F2" filter="url(#shadow)"/>
  <defs>
    <filter id="shadow" x="143" y="143" width="134" height="134" color-interpolation-filters="sRGB" filterUnits="userSpaceOnUse">
      <feDropShadow dx="0" dy="14" stdDeviation="13" flood-color="#000000" flood-opacity=".24"/>
    </filter>
  </defs>
</svg>
